# xmcd
#
# Track frame offsets: 
#        150
#        14644
#        29102
#        43451
#        56892
#        72408
#        86253
#        103666
#        122335
#        137503
#        155206
#        174592
#
# Disc length: 2530 seconds
#
# Revision: 0
# Processed by: cddbd v1.5.2PL0 Copyright (c) Steve Scherf et al.
# Submitted via: ExactAudioCopyFreeDBPlugin 1.0
#
DISCID=af09e00c
DTITLE=Al Corte - Mojo
DYEAR=2017
DGENRE=Blues
TTITLE0=Mojo
TTITLE1=Love Thang
TTITLE2=Memphis Moon
TTITLE3=Ill Never Lose My Love For The Blues
TTITLE4=Juke Joint Jive
TTITLE5=Blessed To Have You Near
TTITLE6=Its A Good Day
TTITLE7=Im Ready
TTITLE8=What You Hold
TTITLE9=Were Just A Boy And A Girl
TTITLE10=Touch
TTITLE11=You Hurt Me So Good
EXTD=
EXTT0=
EXTT1=
EXTT2=
EXTT3=
EXTT4=
EXTT5=
EXTT6=
EXTT7=
EXTT8=
EXTT9=
EXTT10=
EXTT11=
PLAYORDER=
